<svg width="31.88" height="32" viewBox="0 0 200 160" fill="none" xmlns="http://www.w3.org/2000/svg">
<path d="M18.2857 0L9.14285 5V105H27.4286V5L18.2857 0ZM59.4285 0L50.2857 5V23.1534C55.8635 20.8009 62.1124 18.4042 68.5714 16.8226V5L59.4285 0ZM100 0L91.4285 5V83.7501H109.714V5L100 0ZM141.714 0L132.571 5V16.8226C139.031 18.4042 145.279 20.8009 150.857 23.1534V5L141.714 0ZM181.714 0L172.571 5V105H190.857V5L181.714 0ZM82.2857 25C64.4448 25 36.6588 40.6249 36.6588 40.6249L36.5714 105H60.9095L58.7711 102.368L82.2857 87.9016V25ZM117.714 25V87.3374L140.715 102.432L138.759 105H163.429L163.341 40.6249C163.341 40.6249 135.555 25 117.714 25ZM91.4285 93.7501L73.1428 105L91.4285 127.5H109.714L126.857 105L109.714 93.7501H91.4285ZM96.768 97.6795L100 101.214L103.232 97.6791L106.465 101.214L103.232 104.751L105.657 107.402L108.89 110.937L105.657 114.472L103.232 117.124L106.465 120.661L103.232 124.196L100 120.661L96.768 124.196L93.5346 120.661L96.768 117.124L94.343 114.472L91.1101 110.937L94.343 107.402L96.768 104.751L93.5346 101.214L96.768 97.6795ZM100 108.285L97.5755 110.937L100 113.589L102.424 110.937L100 108.285ZM0 115V135H26.8572L9.14285 115H0ZM22.2858 115L40.5715 135H58.8572L40.5715 115H22.2858ZM53.7144 115L72.0001 135H82.2857V130L68.5714 115H53.7144ZM131.429 115L117.714 130V135H128L146.286 115H131.429ZM159.429 115L141.143 135H159.429L177.714 115H159.429ZM190.857 115L173.143 135H200V115H190.857ZM91.4285 137.5V155L101.143 160L109.714 155V137.5L91.4285 137.5ZM9.14285 145V155L18.8571 160L27.4286 155V145H9.14285ZM172.571 145V155L182.286 160L190.857 155V145H172.571Z" fill="#6148FF"/>
</svg>
